<svg width="100" height="100" viewBox="0 0 100 100" fill="none" xmlns="http://www.w3.org/2000/svg">
<path d="M77.1709 0H22.3691C10.015 0 0 10.015 0 22.3691V77.1709C0 89.525 10.015 99.54 22.3691 99.54H77.1709C89.525 99.54 99.54 89.525 99.54 77.1709V22.3691C99.54 10.015 89.525 0 77.1709 0Z" fill="#FFE411"/>
<path d="M38.8406 81.3318L31.5186 70.9787C31.3787 70.778 31.3236 70.5302 31.365 70.2891C31.4064 70.048 31.5411 69.8329 31.7399 69.6903L36.5816 66.2847C41.5878 62.7429 44.579 57.8331 44.579 50.8403V19.2988C44.579 19.0544 44.6757 18.8199 44.848 18.6466C45.0203 18.4732 45.2542 18.3751 45.4986 18.3736H58.4171V50.829C58.4171 63.5602 54.8696 69.9117 44.4315 77.3813L38.8406 81.3318Z" fill="white"/>
<path d="M58.0373 18.3787V50.2835C58.0373 63.0204 54.4898 69.3719 44.0516 76.8358L38.4551 80.809L41.1228 84.5722C41.1919 84.6717 41.2801 84.7564 41.3823 84.8215C41.4844 84.8866 41.5985 84.9307 41.7179 84.9513C41.8372 84.9719 41.9595 84.9686 42.0776 84.9415C42.1956 84.9144 42.3071 84.8641 42.4056 84.7936L47.2699 81.3539C53.4624 76.9267 57.3391 72.8399 59.8422 68.1572C62.4362 63.2986 63.5714 57.7929 63.5714 50.2835V19.2982C63.5714 19.0529 63.4739 18.8175 63.3004 18.644C63.1269 18.4705 62.8916 18.373 62.6462 18.373L58.0373 18.3787Z" fill="url(#paint0_linear_261_722)"/>
<defs>
<linearGradient id="paint0_linear_261_722" x1="51.0161" y1="18.3787" x2="51.0161" y2="71.9715" gradientUnits="userSpaceOnUse">
<stop stop-color="#F0FFFF"/>
<stop offset="0.11" stop-color="#DDFAFE"/>
<stop offset="0.33" stop-color="#ADEBFA"/>
<stop offset="0.64" stop-color="#60D4F5"/>
<stop offset="1" stop-color="#00B8EE"/>
</linearGradient>
</defs>
</svg>
