<svg xmlns="http://www.w3.org/2000/svg" xmlns:xlink="http://www.w3.org/1999/xlink" width="41.614620208740234" height="40.02057647705078" viewBox="0 0 41.614620208740234 40.02057647705078" fill="none">
<path d="M38.8098 15.3C35.1098 10.4 28.6098 9.1 22.7098 11.2C22.9098 11.3 23.1098 11.3 23.3098 11.4C32.0098 14.3 36.6098 23.7 33.7098 32.4C32.9098 34.7 31.7098 36.7 30.2098 38.4C32.1098 37.9 34.0098 37.1 35.6098 35.9C42.2098 30.8 43.5098 21.4 38.8098 15.3Z"   fill="#07C160" >
</path>
<path d="M17.1098 10.4L17.1098 10.4C17.5098 10.1 17.8098 9.9 18.2098 9.6C18.2098 9.6 18.2098 9.6 18.3098 9.6C18.7098 9.4 19.1098 9.2 19.4098 8.9C19.4098 8.9 19.5098 8.9 19.5098 8.8C20.3098 8.4 21.1098 8.1 21.9098 7.8C22.0098 7.8 22.0098 7.8 22.1098 7.7C22.5098 7.6 22.9098 7.4 23.3098 7.3L23.4098 7.3C23.8098 7.2 24.2098 7.1 24.6098 7.1C24.7098 7.1 24.7098 7.1 24.8098 7.1C25.4098 7 25.8098 7 26.2098 7C26.3098 7 26.4098 7 26.5098 7C26.9098 7 27.4098 6.9 27.8098 6.9C28.3098 6.9 28.8098 6.9 29.3098 7C29.4098 7 29.4098 7 29.5098 7C30.0098 7 30.4098 7.1 30.9098 7.2C31.0098 7.2 31.1098 7.2 31.1098 7.2C31.6098 7.3 32.0098 7.4 32.4098 7.5C32.5098 7.5 32.5098 7.5 32.6098 7.6C33.1098 7.7 33.6098 7.8 34.0098 8C33.8098 7.6 33.6098 7.3 33.6098 7.3C30.7098 2.7 25.9098 4.76837e-07 20.7098 4.76837e-07C17.6098 4.76837e-07 12.8098 1.1 9.20981 5.4C6.8098 8.3 6.0098 11.7 6.5098 15.1C6.8098 17.4 8.10981 20.5 10.0098 22.4C10.7098 17.5 13.3098 13.2 17.1098 10.4Z"   fill="#07C160" >
</path>
<path d="M20.7098 30.9C19.4098 30.9 18.1098 30.7 16.9098 30.5C16.8098 30.5 16.6098 30.5 16.4098 30.5C16.0098 30.5 15.7098 30.6 15.4098 30.8L11.4098 33.4C11.3098 33.5 11.2098 33.5 11.0098 33.5C10.7098 33.5 10.4098 33.2 10.3098 32.9C10.3098 32.7 10.3098 32.6 10.4098 32.4C10.4098 32.3 10.8098 30.4 11.1098 29.2C11.1098 29.1 11.2098 28.9 11.1098 28.8C11.1098 28.4 10.9098 28 10.5098 27.8C6.2098 24.9 3.3098 20.3 2.7098 15.6C1.6098 17.3 1.1098 18.6 0.5098 20.6C-1.5902 27.9 3.0098 36.6 10.4098 39C19.0098 41.8 27.1098 38.7 29.9098 31.4C30.2098 30.5 30.6098 29 30.7098 27.8C27.8098 29.9 24.7098 30.9 20.7098 30.9Z"   fill="#07C160" >
</path>
</svg>
